<svg width="24" height="24" viewBox="0 0 24 24" fill="none" xmlns="http://www.w3.org/2000/svg">
<path fill-rule="evenodd" clip-rule="evenodd" d="M21.8906 9.23071H2.10938C0.946219 9.23071 0 10.2659 0 11.5384V16.1538C0 17.4263 0.946219 18.4615 2.10938 18.4615H4.96875V17.6923C4.96875 16.4197 5.91497 15.3846 7.07812 15.3846H16.9219C18.085 15.3846 19.0312 16.4197 19.0312 17.6923V18.4615H21.8906C23.0538 18.4615 24 17.4263 24 16.1538V11.5384C24 10.2659 23.0538 9.23071 21.8906 9.23071ZM15 13.1868C14.6686 13.1868 14.4 12.8915 14.4 12.5274C14.4 12.1632 14.6686 11.8681 15 11.8681C15.3314 11.8681 15.6 12.1632 15.6 12.5274C15.6 12.8915 15.3314 13.1868 15 13.1868ZM16.8 12.5274C16.8 12.8915 17.0686 13.1868 17.4 13.1868C17.7314 13.1868 18 12.8915 18 12.5274C18 12.1632 17.7314 11.8681 17.4 11.8681C17.0686 11.8681 16.8 12.1632 16.8 12.5274Z" fill="white"/>
<path d="M15.6924 0V2.76923H18.4616C18.1784 1.37979 17.0818 0.283164 15.6924 0Z" fill="white"/>
<path d="M6.25652 0C5.85969 0 5.53857 0.371575 5.53857 0.830769V8.30769H18.4617V4.98462H14.8719C14.4751 4.98462 14.154 4.61304 14.154 4.15385V0H6.25652Z" fill="white"/>
<path fill-rule="evenodd" clip-rule="evenodd" d="M18.4617 23.1924C18.4617 23.6389 18.1004 24.0001 17.654 24.0001H6.34627C5.89983 24.0001 5.53857 23.6389 5.53857 23.1924V18.3463C5.53857 17.8998 5.89983 17.5386 6.34627 17.5386H17.654C18.1004 17.5386 18.4617 17.8998 18.4617 18.3463V23.1924ZM15.1017 20.1232H8.89857C8.46999 20.1232 8.12319 20.4122 8.12319 20.7693C8.12319 21.1265 8.46999 21.4155 8.89857 21.4155H15.1017C15.5302 21.4155 15.877 21.1265 15.877 20.7693C15.877 20.4122 15.5302 20.1232 15.1017 20.1232Z" fill="white"/>
</svg>
