<svg width="47" height="48" viewBox="0 0 47 48" fill="none" xmlns="http://www.w3.org/2000/svg">
<path d="M45.623 34.1055L35.3418 29.6992C35.0664 29.6074 34.791 29.5156 34.4238 29.5156C33.7812 29.5156 33.1387 29.8828 32.7715 30.3418L28.1816 35.9414C21.0215 32.5449 15.3301 26.8535 11.9336 19.6934L17.5332 15.1035C17.9922 14.7363 18.3594 14.0938 18.3594 13.3594C18.3594 13.084 18.2676 12.8086 18.1758 12.5332L13.7695 2.25195C13.4023 1.42578 12.5762 0.875 11.6582 0.875C11.5664 0.875 11.3828 0.966797 11.1992 0.966797L1.65234 3.16992C0.642578 3.44531 0 4.27148 0 5.28125C0 28.873 19.002 47.875 42.5938 47.875C43.6035 47.875 44.4297 47.2324 44.7051 46.2227L46.9082 36.6758C46.9082 36.4922 46.9082 36.3086 46.9082 36.2168C46.9082 35.2988 46.3574 34.4727 45.623 34.1055Z" fill="#26ABA3"/>
</svg>
