<svg width="36" height="49" viewBox="0 0 36 49" fill="none" xmlns="http://www.w3.org/2000/svg">
<path d="M15.7891 46.957C16.6152 48.2422 18.543 48.2422 19.3691 46.957C32.7715 27.6797 35.25 25.6602 35.25 18.5C35.25 8.76953 27.3555 0.875 17.625 0.875C7.80273 0.875 0 8.76953 0 18.5C0 25.6602 2.38672 27.6797 15.7891 46.957ZM17.625 25.8438C13.4941 25.8438 10.2812 22.6309 10.2812 18.5C10.2812 14.4609 13.4941 11.1562 17.625 11.1562C21.6641 11.1562 24.9688 14.4609 24.9688 18.5C24.9688 22.6309 21.6641 25.8438 17.625 25.8438Z" fill="#26ABA3"/>
</svg>
