<svg width="47" height="36" viewBox="0 0 47 36" fill="none" xmlns="http://www.w3.org/2000/svg">
<path d="M46.082 12.4082C43.9707 14.0605 41.3086 16.0801 31.9453 22.873C30.1094 24.25 26.7129 27.2793 23.5 27.2793C20.1953 27.2793 16.8906 24.25 14.9629 22.873C5.59961 16.0801 2.9375 14.0605 0.826172 12.4082C0.458984 12.1328 0 12.4082 0 12.8672V31.5938C0 34.0723 1.92773 36 4.40625 36H42.5938C44.9805 36 47 34.0723 47 31.5938V12.8672C47 12.4082 46.4492 12.1328 46.082 12.4082ZM23.5 24.25C25.6113 24.3418 28.6406 21.5879 30.2012 20.4863C42.4102 11.6738 43.3281 10.8477 46.082 8.64453C46.6328 8.27734 47 7.63477 47 6.90039V5.15625C47 2.76953 44.9805 0.75 42.5938 0.75H4.40625C1.92773 0.75 0 2.76953 0 5.15625V6.90039C0 7.63477 0.275391 8.27734 0.826172 8.64453C3.58008 10.8477 4.49805 11.6738 16.707 20.4863C18.2676 21.5879 21.2969 24.3418 23.5 24.25Z" fill="#26ABA3"/>
</svg>
