<svg width="27" height="31" viewBox="0 0 27 31" fill="none" xmlns="http://www.w3.org/2000/svg">
<path d="M18.75 21.375H17.3438C16.0547 22.0195 14.6484 22.3125 13.125 22.3125C11.6016 22.3125 10.1367 22.0195 8.84766 21.375H7.5C3.33984 21.375 0 24.7734 0 28.875C0 29.9297 0.820312 30.75 1.875 30.75H24.375C25.3711 30.75 26.25 29.9297 26.25 28.875C26.25 24.7734 22.8516 21.375 18.75 21.375ZM2.8125 13.875C3.28125 13.875 3.75 13.4648 3.75 12.9375V12C3.75 6.84375 7.91016 2.625 13.125 2.625C18.2812 2.625 22.5 6.84375 22.5 12V12.9375C22.4414 15.5742 20.3906 17.625 17.8125 17.625H15.9375C15.9375 16.6289 15.0586 15.75 14.0625 15.75H12.1875C11.1328 15.75 10.3125 16.6289 10.3125 17.625C10.3125 18.6797 11.1328 19.5 12.1875 19.5H17.8125C21.3867 19.5 24.3164 16.5703 24.375 12.9375V12C24.375 5.84766 19.2773 0.75 13.125 0.75C6.91406 0.75 1.875 5.84766 1.875 12V12.9375C1.875 13.4648 2.28516 13.875 2.8125 13.875ZM12.1875 13.875H14.0625C15.4102 13.9336 16.6406 14.6367 17.2852 15.75H17.8125C19.3359 15.75 20.5664 14.5195 20.625 12.9375V12C20.625 7.89844 17.2266 4.5 13.125 4.5C8.96484 4.5 5.625 7.89844 5.625 12C5.625 14.4023 6.73828 16.4531 8.4375 17.8594C8.4375 17.8008 8.4375 17.7422 8.4375 17.625C8.4375 15.5742 10.0781 13.9336 12.1875 13.875Z" fill="#F7AB1E"/>
</svg>
