<svg width="34" height="31" viewBox="0 0 34 31" fill="none" xmlns="http://www.w3.org/2000/svg">
<path d="M16.1133 15.457C16.5234 15.8672 17.168 15.8672 17.5781 15.457L23.9648 8.77734C25.8398 6.84375 25.7227 3.62109 23.6719 1.80469C21.8555 0.222656 19.1602 0.515625 17.5195 2.27344L16.875 2.91797L16.1719 2.27344C14.5312 0.515625 11.8359 0.222656 10.0781 1.80469C7.96875 3.62109 7.85156 6.84375 9.72656 8.77734L16.1133 15.457ZM33.1055 20.0273C32.4023 19.3828 31.3477 19.4414 30.5859 20.0273L25.1953 24.3047C24.5508 24.8906 23.6719 25.125 22.8516 25.125H15.9375C15.4102 25.125 15 24.7148 15 24.1875C15 23.7188 15.4102 23.25 15.9375 23.25H20.5078C21.4453 23.25 22.3242 22.6641 22.4414 21.7266C22.6172 20.5547 21.7383 19.5 20.625 19.5H11.25C9.66797 19.5 8.08594 20.0859 6.85547 21.082L4.16016 23.25H0.9375C0.410156 23.25 0 23.7188 0 24.1875V29.8125C0 30.3398 0.410156 30.75 0.9375 30.75H21.7969C22.6758 30.75 23.4961 30.5156 24.1406 29.9297L33.0469 22.8398C33.9258 22.1367 33.9844 20.7891 33.1055 20.0273Z" fill="#F7AB1E"/>
</svg>
