<svg width="30" height="31" viewBox="0 0 30 31" fill="none" xmlns="http://www.w3.org/2000/svg">
<path d="M29.8242 16.8633C28.5938 14.1094 26.9531 8.01562 25.5469 5.96484C23.3203 2.80078 19.6875 0.75 15.5859 0.75H11.25C5.03906 0.75 0 5.78906 0 12V12.0586C0 15.3398 1.40625 18.3281 3.75 20.3789V30.75H18.75V27H22.5C24.5508 27 26.25 25.3594 26.25 23.25V19.5H28.125C29.1211 19.5 29.9414 18.6797 29.9414 17.625C29.9414 17.3906 29.8828 17.0977 29.8242 16.8633ZM18.75 13.4062C18.75 13.6992 18.5156 13.875 18.2812 13.875H15V17.1562C15 17.4492 14.7656 17.625 14.5312 17.625H11.7188C11.4258 17.625 11.25 17.4492 11.25 17.1562V13.875H7.96875C7.67578 13.875 7.5 13.6992 7.5 13.4062V10.5938C7.5 10.3594 7.67578 10.125 7.96875 10.125H11.25V6.84375C11.25 6.60938 11.4258 6.375 11.7188 6.375H14.5312C14.7656 6.375 15 6.60938 15 6.84375V10.125H18.2812C18.5156 10.125 18.75 10.3594 18.75 10.5938V13.4062Z" fill="#F7AB1E"/>
</svg>
