<svg width="30" height="31" viewBox="0 0 30 31" fill="none" xmlns="http://www.w3.org/2000/svg">
<path d="M27.3047 5.67188L16.0547 0.984375C15.7031 0.867188 15.3516 0.808594 15 0.808594C14.5898 0.808594 14.2383 0.867188 13.8867 0.984375L2.63672 5.67188C1.58203 6.14062 0.9375 7.13672 0.9375 8.25C0.9375 19.9102 7.61719 27.9375 13.8867 30.5742C14.5898 30.8672 15.3516 30.8672 16.0547 30.5742C21.0938 28.4648 29.0625 21.2578 29.0625 8.25C29.0625 7.13672 28.3594 6.14062 27.3047 5.67188ZM15 26.9414V4.61719L25.2539 8.89453C25.0781 17.7422 20.4492 24.1875 15 26.9414Z" fill="#F7AB1E"/>
</svg>
