<svg width="47" height="47" viewBox="0 0 47 47" fill="none" xmlns="http://www.w3.org/2000/svg">
<path d="M23.5 0.609375C10.9238 0.609375 0.734375 10.7988 0.734375 23.375C0.734375 35.9512 10.9238 46.1406 23.5 46.1406C36.0762 46.1406 46.2656 35.9512 46.2656 23.375C46.2656 10.7988 36.0762 0.609375 23.5 0.609375ZM31.9453 29.3418L30.1094 31.6367C29.834 32.0039 29.4668 32.2793 28.916 32.2793C28.6406 32.2793 28.2734 32.0957 28.0898 31.9121L21.9395 27.3223C21.0215 26.6797 20.5625 25.6699 20.5625 24.4766V10.1562C20.5625 9.42188 21.2051 8.6875 22.0312 8.6875H24.9688C25.7031 8.6875 26.4375 9.42188 26.4375 10.1562V23.375L31.7617 27.3223C32.0371 27.5977 32.3125 27.9648 32.3125 28.4238C32.3125 28.791 32.1289 29.1582 31.9453 29.3418Z" fill="#26ABA3"/>
</svg>
